<svg width="156" height="35" viewBox="0 0 156 35" fill="none" xmlns="http://www.w3.org/2000/svg">
<path d="M32.4979 34.4865C31.0518 34.4865 29.6057 34.4742 28.1622 34.4939C27.7142 34.4988 27.5499 34.3735 27.6071 33.9018C27.7639 32.6439 27.2238 31.6194 26.3527 30.7644C25.8724 30.2927 25.6633 29.9143 26.1113 29.2707C26.5245 28.681 26.4871 28.0005 25.9221 27.4551C25.7429 27.2806 25.7305 27.1504 25.8425 26.9342C26.3079 26.0326 26.1287 25.239 25.3422 24.5953C24.5035 23.9074 24.5059 23.6814 25.3497 22.9812C25.6459 22.7355 25.9271 22.4726 26.2009 22.2024C27.0646 21.3425 27.0845 20.399 26.288 19.4679C25.738 18.8242 25.0112 18.4139 24.3143 17.9643C22.9678 17.0971 21.6213 16.2273 20.2474 15.4043C19.5754 15.0038 19.2867 14.397 19.0552 13.7214C18.1816 11.1884 16.9645 8.83966 15.1849 6.80295C14.7991 6.36072 14.722 6.01431 15.053 5.48609C15.9017 4.13975 16.6733 2.74427 17.4946 1.38073C18.6097 -0.471722 20.9518 -0.476636 22.0568 1.39055C24.0505 4.75395 26.0117 8.13701 27.9879 11.5127C31.3206 17.2003 34.6558 22.8854 37.9884 28.5705C38.3668 29.2142 38.7476 29.8554 39.1184 30.5015C40.1961 32.3859 39.0263 34.4349 36.8336 34.4767C35.3875 34.5037 33.9415 34.4816 32.4979 34.4816V34.4865Z" fill="white"/>
<path d="M9.54005 34.489C7.30002 34.489 5.06248 34.4988 2.82244 34.4865C1.30918 34.4767 0.321076 33.7003 0.0472947 32.3614C-0.0771515 31.7594 0.0472947 31.1993 0.345966 30.676C2.99418 26.0399 5.65235 21.4088 8.29808 16.7703C8.54199 16.3428 8.74111 16.4583 8.96511 16.7556C10.008 18.1265 10.9612 19.5514 11.5063 21.1951C11.7253 21.8584 12.0638 22.3694 12.6885 22.7281C13.5646 23.2367 14.4084 23.7993 15.2646 24.3447C15.4861 24.4848 15.7151 24.6248 15.9167 24.7894C16.7604 25.4749 16.7704 25.9122 15.9689 26.6345C15.8196 26.7696 15.6504 26.8875 15.511 27.0325C15.0605 27.5018 15.0829 27.9464 15.5707 28.3862C16.2079 28.9611 16.2253 29.0274 15.7474 29.7129C15.5334 30.0225 15.6728 30.1969 15.9391 30.3394C16.295 30.5286 16.3099 30.7816 16.1058 31.0887C15.7872 31.5678 15.8594 31.9855 16.2701 32.381C16.6235 32.7201 16.9098 33.1082 17.0218 33.5996C17.1761 34.2777 17.0168 34.4939 16.3149 34.4939C14.055 34.4988 11.795 34.4939 9.53507 34.4939L9.54005 34.489Z" fill="white"/>
<path d="M40.2758 7.37295V13.8934H43.9419V34.8796H50.4181V13.8934H50.5401H54.0047V7.37295H40.2758Z" fill="white"/>
<path d="M76.8182 14.1292H58.7411V28.4992H57.967V14.1292H51.5182V28.2413C51.5182 31.9732 54.5846 35 58.3653 35C62.1111 35 65.1625 32.0272 65.2123 28.3297L65.3168 20.576H76.8182V28.2118H76.0839V21.2467C72.4401 21.2467 69.4833 24.1629 69.4833 27.7622V28.1233C69.4833 31.7201 72.4377 34.6388 76.0839 34.6388H76.6962C80.34 34.6388 83.2968 31.7226 83.2968 28.1233V20.5219C83.2968 16.9914 80.3972 14.1292 76.8206 14.1292H76.8182Z" fill="white"/>
<path d="M141.981 20.4949H149.211V28.1307H148.477V21.1656C144.833 21.1656 141.876 24.0818 141.876 27.6811V28.0423C141.876 31.6391 144.83 34.5578 148.477 34.5578H149.089C152.733 34.5578 155.69 31.6415 155.69 28.0423V20.4408C155.69 16.9104 152.79 14.0482 149.213 14.0482H142.048L141.983 20.4949H141.981Z" fill="white"/>
<path d="M98.8376 20.4949H106.068V28.1307H105.334V21.1656C101.69 21.1656 98.7331 24.0818 98.7331 27.6811V28.0423C98.7331 31.6391 101.687 34.5578 105.334 34.5578H105.946C109.59 34.5578 112.547 31.6415 112.547 28.0423V20.4408C112.547 16.9104 109.647 14.0482 106.07 14.0482H98.9048L98.8401 20.4949H98.8376Z" fill="white"/>
<path d="M90.6292 7.13218H84.1505V34.6388H90.6292V7.13218Z" fill="white"/>
<path d="M98.086 14.0088H91.6074V34.6388H98.086V14.0088Z" fill="white"/>
<path d="M98.086 7.13218H91.6074V13.2841H98.086V7.13218Z" fill="white"/>
<path d="M120.267 14.0088C116.521 14.0088 113.485 17.0062 113.485 20.7037V34.6388H119.839V20.2811H120.573V34.6388H127.052V20.7037C127.052 17.0062 124.016 14.0088 120.27 14.0088H120.267Z" fill="white"/>
<path d="M127.906 14.0482V20.404H134.872V21.2491C134.872 21.2491 131.816 21.2491 129.862 23.1802C128.356 24.6666 128.01 26.4379 127.931 27.175L127.906 29.8456V34.6438H141.351V28.2879H134.384V27.4428C134.384 27.4428 137.441 27.4428 139.395 25.5117C140.9 24.0253 141.246 22.254 141.326 21.5169L141.344 18.8513L141.351 18.8463V14.0482H127.906Z" fill="white"/>
</svg>
