<svg width="929" height="861" viewBox="0 0 929 861" fill="none" xmlns="http://www.w3.org/2000/svg">
<path d="M763.807 860.745C729.835 860.745 695.864 860.47 661.892 860.929C651.341 861.067 647.489 857.946 648.846 846.153C652.523 814.766 639.871 789.207 619.383 767.869C608.088 756.122 603.141 746.669 613.736 730.609C623.411 715.879 622.579 698.946 609.27 685.318C605.024 680.958 604.805 677.7 607.388 672.332C618.289 649.801 614.13 630.023 595.655 613.963C575.911 596.801 576.043 591.111 595.787 573.674C602.747 567.571 609.358 561.009 615.793 554.263C636.106 532.834 636.588 509.248 617.851 486.029C604.936 469.968 587.819 459.735 571.446 448.538C539.794 426.925 508.143 405.175 475.834 384.663C460.074 374.66 453.289 359.517 447.816 342.676C427.284 279.443 398.653 220.845 356.845 170.002C347.783 158.989 345.945 150.316 353.781 137.146C373.744 103.557 391.868 68.728 411.174 34.6795C437.353 -11.5292 492.426 -11.6669 518.387 34.9089C565.23 118.883 611.328 203.316 657.82 287.519C736.14 429.449 814.546 571.333 892.865 713.263C901.752 729.324 910.727 745.293 919.439 761.445C944.786 808.434 917.294 859.644 865.723 860.654C831.751 861.342 797.779 860.791 763.807 860.791V860.7V860.745Z" fill="#8CD50A"/>
<path d="M224.241 860.746C171.62 860.746 118.998 860.975 66.3332 860.654C30.7853 860.424 7.53913 841.014 1.10373 807.608C-1.78563 792.557 1.14751 778.561 8.15202 765.575C70.4046 649.847 132.876 534.256 195.085 418.482C200.82 407.79 205.46 410.681 210.757 418.069C235.229 452.301 257.644 487.864 270.471 528.887C275.637 545.407 283.604 558.164 298.226 567.158C318.846 579.822 338.677 593.91 358.772 607.493C363.981 611.026 369.322 614.468 374.094 618.597C393.925 635.713 394.144 646.635 375.276 664.668C371.73 668.064 367.79 671.001 364.506 674.626C353.912 686.373 354.437 697.432 365.907 708.399C380.879 722.762 381.273 724.414 370.066 741.53C365.032 749.239 368.315 753.644 374.575 757.177C382.981 761.904 383.287 768.236 378.515 775.854C371.029 787.784 372.737 798.247 382.368 808.113C390.686 816.602 397.428 826.284 400.054 838.49C403.688 855.423 399.923 860.791 383.419 860.837C330.316 860.975 277.213 860.837 224.11 860.837V860.746H224.241Z" fill="#8CD50A"/>
</svg>
